<svg width="11" height="12" viewBox="0 0 11 12" fill="none" xmlns="http://www.w3.org/2000/svg">
<path fill-rule="evenodd" clip-rule="evenodd" d="M7.69866 0C7.92973 0 8.11726 0.187534 8.11726 0.418603L8.11752 0.891797C8.93246 0.94767 9.60929 1.22681 10.0883 1.70684C10.6113 2.23205 10.8865 2.9872 10.8837 3.89306V8.98494C10.8837 10.8447 9.70265 12 7.8022 12H3.08147C1.18102 12 0 10.8285 0 8.94253V3.89194C0 2.13783 1.05324 1.01187 2.77097 0.891989L2.77132 0.418603C2.77132 0.187534 2.95885 0 3.18992 0C3.42099 0 3.60852 0.187534 3.60852 0.418603L3.60836 0.881298H7.27978L7.28006 0.418603C7.28006 0.187534 7.46759 0 7.69866 0ZM10.0465 4.96965H0.837205V8.94253C0.837205 10.3747 1.63422 11.1628 3.08147 11.1628H7.8022C9.24944 11.1628 10.0465 10.3892 10.0465 8.98494L10.0465 4.96965ZM7.92621 8.48162C8.15728 8.48162 8.34482 8.66915 8.34482 8.90022C8.34482 9.13129 8.15728 9.31882 7.92621 9.31882C7.69515 9.31882 7.50538 9.13129 7.50538 8.90022C7.50538 8.66915 7.69012 8.48162 7.92119 8.48162H7.92621ZM5.44948 8.48162C5.68055 8.48162 5.86808 8.66915 5.86808 8.90022C5.86808 9.13129 5.68055 9.31882 5.44948 9.31882C5.21841 9.31882 5.02865 9.13129 5.02865 8.90022C5.02865 8.66915 5.21339 8.48162 5.44446 8.48162H5.44948ZM2.96756 8.48162C3.19863 8.48162 3.38616 8.66915 3.38616 8.90022C3.38616 9.13129 3.19863 9.31882 2.96756 9.31882C2.73649 9.31882 2.54616 9.13129 2.54616 8.90022C2.54616 8.66915 2.73147 8.48162 2.96254 8.48162H2.96756ZM7.92621 6.31231C8.15728 6.31231 8.34482 6.49984 8.34482 6.73091C8.34482 6.96198 8.15728 7.14951 7.92621 7.14951C7.69515 7.14951 7.50538 6.96198 7.50538 6.73091C7.50538 6.49984 7.69012 6.31231 7.92119 6.31231H7.92621ZM5.44948 6.31231C5.68055 6.31231 5.86808 6.49984 5.86808 6.73091C5.86808 6.96198 5.68055 7.14951 5.44948 7.14951C5.21841 7.14951 5.02865 6.96198 5.02865 6.73091C5.02865 6.49984 5.21339 6.31231 5.44446 6.31231H5.44948ZM2.96756 6.31231C3.19863 6.31231 3.38616 6.49984 3.38616 6.73091C3.38616 6.96198 3.19863 7.14951 2.96756 7.14951C2.73649 7.14951 2.54616 6.96198 2.54616 6.73091C2.54616 6.49984 2.73147 6.31231 2.96254 6.31231H2.96756ZM7.27978 1.7185H3.60836L3.60852 2.25543C3.60852 2.4865 3.42099 2.67403 3.18992 2.67403C2.95885 2.67403 2.77132 2.4865 2.77132 2.25543L2.77102 1.73117C1.52066 1.83621 0.837205 2.59414 0.837205 3.89194V4.13245H10.0465L10.0465 3.89194C10.0487 3.20265 9.8634 2.66683 9.49558 2.29846C9.17271 1.97464 8.70072 1.78124 8.11774 1.73144L8.11726 2.25543C8.11726 2.4865 7.92973 2.67403 7.69866 2.67403C7.46759 2.67403 7.28006 2.4865 7.28006 2.25543L7.27978 1.7185Z" fill="#8E8E8E"/>
</svg>
