<svg width="20" height="20" viewBox="0 0 20 20" fill="none" xmlns="http://www.w3.org/2000/svg">
<path opacity="0.4" d="M20 10C20 15.523 15.523 20 10 20C4.477 20 0 15.523 0 10C0 4.478 4.477 0 10 0C15.523 0 20 4.478 20 10Z" fill="#69A197"/>
<path d="M13.8599 6.70481L12.2399 11.8248C12.1799 12.0348 12.0099 12.2048 11.7999 12.2658L6.69987 13.8648C6.35987 13.9758 6.02987 13.6448 6.13987 13.3048L7.73987 8.17481C7.79987 7.96481 7.96987 7.80481 8.17987 7.73481L13.2999 6.13481C13.6499 6.02481 13.9699 6.35481 13.8599 6.70481Z" fill="#69A197"/>
</svg>
