<svg width="36" height="53" viewBox="0 0 36 53" fill="none" xmlns="http://www.w3.org/2000/svg">
<path d="M18 51.0667L2 24.4V11.6L18 2L34 11.6V24.4L18 51.0667Z" fill="white"/>
<path d="M18 2V10.5333L25.4667 15.0133V23.12L18 27.6V51.0667L34 24.4V11.6L18 2Z" fill="#C1C1C1"/>
<path d="M25.4669 15.0141C25.4669 14.8007 10.5336 23.3341 10.5336 23.3341L18.0002 27.8141L25.4669 23.3341V15.0141Z" fill="#C1C1C1"/>
<path d="M18 51.0667L2 24.4V11.6L18 2L34 11.6V24.4L18 51.0667Z" stroke="#69A197" stroke-width="3.5" stroke-miterlimit="10" stroke-linecap="round" stroke-linejoin="round"/>
<path d="M10.5336 15.0129L18.0002 10.5329L25.4669 15.0129V23.1196L18.0002 27.5996L10.5336 23.1196V15.0129Z" stroke="#69A197" stroke-width="3.5" stroke-miterlimit="10" stroke-linecap="round" stroke-linejoin="round"/>
</svg>
