<svg width="52" height="79" viewBox="0 0 52 79" fill="none" xmlns="http://www.w3.org/2000/svg">
<path d="M26.0001 76.3332L2.00024 36.3334V17.1335L26.0001 2.73352L50 17.1335V36.3334L26.0001 76.3332Z" fill="#C1C1C1"/>
<path d="M26 2.73352V15.5335L37.2 22.2534V34.4134L26 41.1334V76.3332L49.9999 36.3334V17.1335L26 2.73352Z" fill="#69A197"/>
<path d="M37.2006 22.2538C37.2006 21.9338 14.8007 34.7338 14.8007 34.7338L26.0007 41.4538L37.2006 34.7338V22.2538Z" fill="#69A197"/>
<path d="M26.0001 76.3332L2.00024 36.3334V17.1335L26.0001 2.73352L50 17.1335V36.3334L26.0001 76.3332Z" stroke="white" stroke-width="3.5" stroke-miterlimit="10" stroke-linecap="round" stroke-linejoin="round"/>
<path d="M14.8007 22.2529L26.0007 15.5329L37.2006 22.2529V34.4128L26.0007 41.1328L14.8007 34.4128V22.2529Z" stroke="white" stroke-width="3.5" stroke-miterlimit="10" stroke-linecap="round" stroke-linejoin="round"/>
</svg>
