<svg width="15" height="22" viewBox="0 0 15 22" fill="none" xmlns="http://www.w3.org/2000/svg">
<path d="M3.9335 1.41874C6.24321 0.0766978 9.08222 0.100154 11.3702 1.48018C13.6358 2.88832 15.0127 5.40142 15 8.10482C14.9472 10.7905 13.4707 13.315 11.6251 15.2666C10.5599 16.3981 9.36826 17.3986 8.07456 18.2477C7.94133 18.3247 7.79538 18.3763 7.64393 18.3999C7.49816 18.3937 7.35621 18.3506 7.23087 18.2745C5.25578 16.9987 3.52303 15.3701 2.11597 13.4672C0.93858 11.8787 0.26967 9.95964 0.200073 7.97054L0.205344 7.68117C0.301477 5.08478 1.70629 2.71285 3.9335 1.41874ZM8.55918 5.75091C7.62023 5.3518 6.53769 5.56863 5.81701 6.30018C5.09633 7.03172 4.87967 8.13366 5.26819 9.09149C5.65671 10.0493 6.57378 10.6741 7.5912 10.6741C8.25773 10.6789 8.89844 10.4119 9.37059 9.93265C9.84273 9.4534 10.1071 8.80168 10.1047 8.12273C10.1083 7.08636 9.49813 6.15003 8.55918 5.75091Z" fill="#69A197"/>
<path opacity="0.4" d="M7.6002 21.5718C10.5194 21.5718 12.8859 21.0985 12.8859 20.5147C12.8859 19.9308 10.5194 19.4575 7.6002 19.4575C4.68098 19.4575 2.31448 19.9308 2.31448 20.5147C2.31448 21.0985 4.68098 21.5718 7.6002 21.5718Z" fill="#69A197"/>
</svg>
