<svg width="11" height="12" viewBox="0 0 11 12" fill="none" xmlns="http://www.w3.org/2000/svg">
<path fill-rule="evenodd" clip-rule="evenodd" d="M5.07692 0C7.87631 0 10.1538 2.29477 10.1538 5.11569C10.1538 8.58338 6.18092 12 5.07692 12C3.97292 12 0 8.58338 0 5.11569C0 2.29477 2.27754 0 5.07692 0ZM5.07692 0.923077C2.78646 0.923077 0.923077 2.80431 0.923077 5.11569C0.923077 8.05662 4.384 10.9218 5.07692 11.0745C5.76985 10.9212 9.23077 8.056 9.23077 5.11569C9.23077 2.80431 7.36738 0.923077 5.07692 0.923077ZM5.07754 3.07692C6.18031 3.07692 7.07754 3.97415 7.07754 5.07754C7.07754 6.18031 6.18031 7.07692 5.07754 7.07692C3.97477 7.07692 3.07754 6.18031 3.07754 5.07754C3.07754 3.97415 3.97477 3.07692 5.07754 3.07692ZM5.07754 4C4.48369 4 4.00062 4.48308 4.00062 5.07754C4.00062 5.67139 4.48369 6.15385 5.07754 6.15385C5.67138 6.15385 6.15446 5.67139 6.15446 5.07754C6.15446 4.48308 5.67138 4 5.07754 4Z" fill="#8E8E8E"/>
</svg>
