<svg width="16" height="16" viewBox="0 0 16 16" fill="none" xmlns="http://www.w3.org/2000/svg">
<path opacity="0.4" d="M11.7333 0H4.26667C1.54311 0 0 1.54311 0 4.26667V11.7333C0 14.4498 1.536 16 4.26667 16H11.7333C14.4569 16 16 14.4498 16 11.7333V4.26667C16 1.54311 14.4569 0 11.7333 0Z" fill="white"/>
<path d="M10.6564 8.56666H8.5996V10.6056C8.5996 10.9339 8.33115 11.2 7.99999 11.2C7.66883 11.2 7.40037 10.9339 7.40037 10.6056V8.56666H5.34362C5.03473 8.53495 4.79999 8.2769 4.79999 7.96904C4.79999 7.66119 5.03473 7.40314 5.34362 7.37143H7.39392V5.33891C7.42591 5.03269 7.68621 4.79999 7.99676 4.79999C8.30731 4.79999 8.56762 5.03269 8.5996 5.33891V7.37143H10.6564C10.9652 7.40314 11.2 7.66119 11.2 7.96904C11.2 8.2769 10.9652 8.53495 10.6564 8.56666Z" fill="white"/>
</svg>
