<svg width="20" height="20" viewBox="0 0 20 20" fill="none" xmlns="http://www.w3.org/2000/svg">
<path d="M8.59905 17.3061C13.3482 17.3061 17.1981 13.432 17.1981 8.65307C17.1981 3.87411 13.3482 0 8.59905 0C3.84993 0 0 3.87411 0 8.65307C0 13.432 3.84993 17.3061 8.59905 17.3061Z" fill="#69A197"/>
<path opacity="0.4" d="M18.6747 19.9552C18.3406 19.9443 18.023 19.8069 17.7854 19.5704L15.7489 17.1899C15.3122 16.7907 15.2765 16.1121 15.6688 15.6686C15.8524 15.4828 16.1021 15.3783 16.3625 15.3783C16.6229 15.3783 16.8725 15.4828 17.0561 15.6686L19.6173 17.7179C19.9863 18.0955 20.1001 18.6561 19.908 19.1491C19.7159 19.6421 19.2537 19.9753 18.728 19.9999L18.6747 19.9552Z" fill="#69A197"/>
</svg>
